:FULLY-SPECIFIED
:FORCE-ALL-JOINTS-BE-3DOF
:DEGREES
3058
root -1.78991 16.0278 -34.7554 1086.01 5.80651 3.44056
lfemur -34.8188 4.89929 -0.715037
ltibia 72.0927 0 0
lfoot -2.7572 5.12052 0
ltoes -30.9651 0 0
rfemur -39.5048 -9.43813 27.4075
rtibia 59.7997 0 0
rfoot -18.9892 -30.4854 0
rtoes -1.14003 0 0
lowerback 12.9002 -0.467528 -2.41294
upperback -1.06282 -0.867936 1.86495
thorax -8.40146 -0.238488 3.58984
lowerneck 5.16985 -11.9079 -13.6816
upperneck -4.74492 -16.3584 11.4031
head -0.263137 -8.27469 5.68691
lclavicle -3.10759e-14 1.5294e-14 0
lhumerus 29.0952 -45.3191 83.367
lradius 62.3764 0 0
lwrist -10.0631 0 0
lhand -28.5638 389.535 0
lfingers 7.12502 0 0
lthumb -1.93042 -660.492 0
rclavicle -3.10759e-14 1.5294e-14 0
rhumerus 42.037 43.5162 -39.8761
rradius 96.1997 0 0
rwrist -46.2585 0 0
rhand -3.46242 -386.331 0
rfingers 7.12502 0 0
rthumb 22.2765 304.841 0
3059
root -1.75186 16.0355 -34.742 1085.91 6.33475 3.45334
lfemur -34.5483 4.80487 -0.775494
ltibia 71.5683 0 0
lfoot -3.19524 4.78451 0
ltoes -31.4452 0 0
rfemur -39.2856 -9.28154 27.1765
rtibia 59.7397 0 0
rfoot -18.9272 -30.3251 0
rtoes -1.55147 0 0
lowerback 12.8499 -0.451918 -2.36361
upperback -1.06843 -0.839616 1.85635
thorax -8.37978 -0.227529 3.54676
lowerneck 5.09503 -11.7988 -13.6057
upperneck -4.6405 -16.2063 11.3131
head -0.247004 -8.19695 5.65801
lclavicle -3.14119e-14 1.45871e-14 0
lhumerus 28.0142 -45.6155 83.8061
lradius 62.5982 0 0
lwrist -9.86236 0 0
lhand -28.555 389.689 0
lfingers 7.12502 0 0
lthumb -1.92192 -660.339 0
rclavicle -3.14119e-14 1.45871e-14 0
rhumerus 40.35 44.0293 -40.8621
rradius 96.744 0 0
rwrist -45.9555 0 0
rhand -3.45348 -386.216 0
rfingers 7.12502 0 0
rthumb 22.2852 304.956 0
3060
root -1.71313 16.043 -34.7249 1085.83 6.82798 3.44955
lfemur -34.2834 4.70601 -0.851978
ltibia 70.9774 0 0
lfoot -3.66192 4.43626 0
ltoes -31.9511 0 0
rfemur -39.0474 -9.10762 26.937
rtibia 59.6838 0 0
rfoot -18.8683 -30.1528 0
rtoes -1.99637 0 0
lowerback 12.7984 -0.431648 -2.30829
upperback -1.07544 -0.804194 1.84616
thorax -8.35894 -0.21354 3.4969
lowerneck 5.01096 -11.674 -13.5184
upperneck -4.52672 -16.0324 11.2119
head -0.229915 -8.10808 5.62461
lclavicle -3.1735e-14 1.38071e-14 0
lhumerus 26.8524 -45.8889 84.2703
lradius 62.8503 0 0
lwrist -9.64047 0 0
lhand -28.5448 389.853 0
lfingers 7.12502 0 0
lthumb -1.91206 -660.174 0
rclavicle -3.1735e-14 1.38071e-14 0
rhumerus 38.5343 44.5435 -41.9347
rradius 97.3232 0 0
rwrist -45.642 0 0
rhand -3.45811 -386.1 0
rfingers 7.12502 0 0
rthumb 22.2807 305.071 0
3061
root -1.6737 16.0501 -34.7039 1085.75 7.28425 3.42845
lfemur -34.0244 4.60258 -0.945123
ltibia 70.3175 0 0
lfoot -4.15804 4.0756 0
ltoes -32.4836 0 0
rfemur -38.7895 -8.9158 26.6887
rtibia 59.6323 0 0
rfoot -18.8127 -29.9682 0
rtoes -2.47575 0 0
lowerback 12.7457 -0.406537 -2.24678
upperback -1.08392 -0.761397 1.83431
thorax -8.33898 -0.196403 3.44003
lowerneck 4.91732 -11.5329 -13.4195
upperneck -4.40326 -15.8359 11.099
head -0.211833 -8.00768 5.58653
lclavicle -3.20443e-14 1.29521e-14 0
lhumerus 25.6072 -46.1378 84.7601
lradius 63.1338 0 0
lwrist -9.39677 0 0
lhand -28.5331 390.029 0
lfingers 7.12502 0 0
lthumb -1.90083 -659.998 0
rclavicle -3.20443e-14 1.29521e-14 0
rhumerus 36.5858 45.058 -43.0967
rradius 97.9379 0 0
rwrist -45.3176 0 0
rhand -3.47706 -385.982 0
rfingers 7.12502 0 0
rthumb 22.2625 305.187 0
3062
root -1.63358 16.057 -34.6788 1085.69 7.70161 3.38934
lfemur -33.772 4.49447 -1.05556
ltibia 69.5862 0 0
lfoot -4.6844 3.70239 0
ltoes -33.0432 0 0
rfemur -38.5114 -8.70548 26.4315
rtibia 59.5854 0 0
rfoot -18.7607 -29.7709 0
rtoes -2.99064 0 0
lowerback 12.6916 -0.376403 -2.17886
upperback -1.09392 -0.710952 1.82077
thorax -8.31996 -0.176001 3.3759
lowerneck 4.81373 -11.3749 -13.3084
upperneck -4.26979 -15.6159 10.974
head -0.192718 -7.89536 5.54361
lclavicle -3.23386e-14 1.20198e-14 0
lhumerus 24.2761 -46.3609 85.2763
lradius 63.4497 0 0
lwrist -9.13059 0 0
lhand -28.5201 390.217 0
lfingers 7.12502 0 0
lthumb -1.88821 -659.81 0
rclavicle -3.23386e-14 1.20198e-14 0
rhumerus 34.5006 45.5722 -44.3507
rradius 98.589 0 0
rwrist -44.9818 0 0
rhand -3.51108 -385.864 0
rfingers 7.12502 0 0
rthumb 22.2298 305.303 0
3063
root -1.59276 16.0636 -34.6495 1085.64 8.07809 3.33151
lfemur -33.5263 4.38157 -1.18393
ltibia 68.7812 0 0
lfoot -5.24178 3.31649 0
ltoes -33.6306 0 0
rfemur -38.2123 -8.47609 26.1652
rtibia 59.543 0 0
rfoot -18.7122 -29.5605 0
rtoes -3.54203 0 0
lowerback 12.6363 -0.341064 -2.10433
upperback -1.10551 -0.652586 1.80546
thorax -8.30193 -0.152214 3.30427
lowerneck 4.69987 -11.1995 -13.1849
upperneck -4.126 -15.3717 10.8366
head -0.172532 -7.77071 5.49568
lclavicle -3.26169e-14 1.10081e-14 0
lhumerus 22.8566 -46.5569 85.8195
lradius 63.7989 0 0
lwrist -8.84124 0 0
lhand -28.5055 390.417 0
lfingers 7.12502 0 0
lthumb -1.87416 -659.61 0
rclavicle -3.26169e-14 1.10081e-14 0
rhumerus 32.2749 46.0856 -45.6995
rradius 99.277 0 0
rwrist -44.6344 0 0
rhand -3.5609 -385.744 0
rfingers 7.12502 0 0
rthumb 22.1818 305.418 0
3064
root -1.55123 16.0698 -34.6158 1085.6 8.41174 3.25422
lfemur -33.2879 4.26375 -1.33087
ltibia 67.9002 0 0
lfoot -5.83098 2.91776 0
ltoes -34.2463 0 0
rfemur -37.8917 -8.22705 25.8897
rtibia 59.5054 0 0
rfoot -18.6676 -29.3366 0
rtoes -4.13096 0 0
lowerback 12.5795 -0.300338 -2.02298
upperback -1.11876 -0.586024 1.78835
thorax -8.28495 -0.124926 3.22491
lowerneck 4.57537 -11.0061 -13.0484
upperneck -3.97154 -15.1025 10.6863
head -0.151236 -7.63333 5.44257
lclavicle -3.28781e-14 9.91485e-15 0
lhumerus 21.3461 -46.7243 86.3903
lradius 64.1826 0 0
lwrist -8.52804 0 0
lhand -28.4895 390.629 0
lfingers 7.12502 0 0
lthumb -1.85868 -659.397 0
rclavicle -3.28781e-14 9.91485e-15 0
rhumerus 29.9046 46.5975 -47.1459
rradius 100.003 0 0
rwrist -44.2749 0 0
rhand -3.62728 -385.624 0
rfingers 7.12502 0 0
rthumb 22.1179 305.533 0
3065
root -1.50901 16.0758 -34.5776 1085.58 8.7006 3.15677
lfemur -33.0572 4.1409 -1.497
ltibia 66.9407 0 0
lfoot -6.45279 2.50604 0
ltoes -34.891 0 0
rfemur -37.5489 -7.95779 25.6047
rtibia 59.4727 0 0
rfoot -18.627 -29.099 0
rtoes -4.75844 0 0
lowerback 12.5213 -0.254044 -1.93461
upperback -1.13373 -0.510994 1.76936
thorax -8.26905 -0.0940182 3.13757
lowerneck 4.43989 -10.7941 -12.8985
upperneck -3.80612 -14.8075 10.5227
head -0.128792 -7.48283 5.38411
lclavicle -3.31211e-14 8.73799e-15 0
lhumerus 19.7422 -46.8618 86.9895
lradius 64.6017 0 0
lwrist -8.19031 0 0
lhand -28.4719 390.855 0
lfingers 7.12502 0 0
lthumb -1.84173 -659.172 0
rclavicle -3.31211e-14 8.73799e-15 0
rhumerus 27.3859 47.1073 -48.6927
rradius 100.767 0 0
rwrist -43.9031 0 0
rhand -3.71096 -385.503 0
rfingers 7.12502 0 0
rthumb 22.0373 305.648 0
3066
root -1.46607 16.0813 -34.5348 1085.57 8.94273 3.03844
lfemur -32.8346 4.01289 -1.68296
ltibia 65.9005 0 0
lfoot -7.108 2.0812 0
ltoes -35.5651 0 0
rfemur -37.1832 -7.66772 25.3102
rtibia 59.4451 0 0
rfoot -18.5905 -28.8472 0
rtoes -5.42549 0 0
lowerback 12.4617 -0.201998 -1.83901
upperback -1.15049 -0.427222 1.74846
thorax -8.2543 -0.0593726 3.04201
lowerneck 4.29308 -10.5629 -12.7349
upperneck -3.62938 -14.4859 10.3456
head -0.105161 -7.31879 5.32013
lclavicle -3.33449e-14 7.47536e-15 0
lhumerus 18.0423 -46.9681 87.6176
lradius 65.0574 0 0
lwrist -7.82736 0 0
lhand -28.4529 391.094 0
lfingers 7.12502 0 0
lthumb -1.8233 -658.933 0
rclavicle -3.33449e-14 7.47536e-15 0
rhumerus 24.7147 47.6143 -50.3424
rradius 101.57 0 0
rwrist -43.5186 0 0
rhand -3.81268 -385.381 0
rfingers 7.12502 0 0
rthumb 21.9393 305.762 0
3067
root -1.42243 16.0865 -34.4872 1085.57 9.13615 2.89852
lfemur -32.6205 3.87962 -1.88938
ltibia 64.777 0 0
lfoot -7.7974 1.64309 0
ltoes -36.2695 0 0
rfemur -36.794 -7.35625 25.006
rtibia 59.4226 0 0
rfoot -18.5583 -28.5808 0
rtoes -6.13311 0 0
lowerback 12.4007 -0.144018 -1.73598
upperback -1.1691 -0.334436 1.72557
thorax -8.24074 -0.0208712 2.93801
lowerneck 4.13459 -10.3121 -12.5572
upperneck -3.44102 -14.1369 10.1543
head -0.0803044 -7.14083 5.25047
lclavicle -3.35484e-14 6.12482e-15 0
lhumerus 16.2438 -47.0418 88.2754
lradius 65.5505 0 0
lwrist -7.43852 0 0
lhand -28.4322 391.346 0
lfingers 7.12502 0 0
lthumb -1.80336 -658.681 0
rclavicle -3.35484e-14 6.12482e-15 0
rhumerus 21.8873 48.1179 -52.098
rradius 102.414 0 0
rwrist -43.1209 0 0
rhand -3.93318 -385.259 0
rfingers 7.12502 0 0
rthumb 21.8233 305.875 0
3068
root -1.37807 16.0913 -34.4347 1085.59 9.27893 2.73628
lfemur -32.4154 3.74097 -2.11691
ltibia 63.5681 0 0
lfoot -8.52178 1.19157 0
ltoes -37.0046 0 0
rfemur -36.3807 -7.02282 24.6919
rtibia 59.4054 0 0
rfoot -18.5305 -28.2996 0
rtoes -6.88234 0 0
lowerback 12.3381 -0.0799243 -1.6253
upperback -1.18963 -0.232361 1.70066
thorax -8.22843 0.0216038 2.82531
lowerneck 3.96408 -10.041 -12.3649
upperneck -3.24072 -13.7598 9.94867
head -0.0541836 -6.94855 5.17495
lclavicle -3.37306e-14 4.68426e-15 0
lhumerus 14.3443 -47.0816 88.9634
lradius 66.0822 0 0
lwrist -7.0231 0 0
lhand -28.41 391.612 0
lfingers 7.12502 0 0
lthumb -1.78189 -658.414 0
rclavicle -3.37306e-14 4.68426e-15 0
rhumerus 18.8995 48.6176 -53.9622
rradius 103.297 0 0
rwrist -42.7097 0 0
rhand -4.07322 -385.137 0
rfingers 7.12502 0 0
rthumb 21.6884 305.988 0
3069
root -1.333 16.0958 -34.377 1085.62 9.36909 2.55101
lfemur -32.2196 3.59681 -2.36617
ltibia 62.2712 0 0
lfoot -9.28195 0.726486 0
ltoes -37.771 0 0
rfemur -35.9426 -6.66685 24.3677
rtibia 59.3937 0 0
rfoot -18.5074 -28.003 0
rtoes -7.67419 0 0
lowerback 12.274 -0.00953296 -1.50678
upperback -1.21214 -0.120724 1.67367
thorax -8.21741 0.0681706 2.70367
lowerneck 3.78119 -9.74902 -12.1576
upperneck -3.02813 -13.3537 9.72816
head -0.0267599 -6.74153 5.09342
lclavicle -3.38903e-14 3.15153e-15 0
lhumerus 12.3411 -47.086 89.6824
lradius 66.6534 0 0
lwrist -6.58041 0 0
lhand -28.3862 391.892 0
lfingers 7.12502 0 0
lthumb -1.75888 -658.134 0
rclavicle -3.38903e-14 3.15153e-15 0
rhumerus 15.7476 49.1126 -55.9376
rradius 104.223 0 0
rwrist -42.2848 0 0
rhand -4.23353 -385.015 0
rfingers 7.12502 0 0
rthumb 21.534 306.099 0
3070
root -1.2872 16.0998 -34.3142 1085.67 9.40469 2.342
lfemur -32.0337 3.44703 -2.6378
ltibia 60.8841 0 0
lfoot -10.0787 0.2477 0
ltoes -38.5694 0 0
rfemur -35.4791 -6.28774 24.0333
rtibia 59.3876 0 0
rfoot -18.489 -27.6908 0
rtoes -8.50967 0 0
lowerback 12.2083 0.0673375 -1.3802
upperback -1.2367 0.000747744 1.64453
thorax -8.20775 0.118947 2.57286
lowerneck 3.58557 -9.43567 -11.9349
upperneck -2.80295 -12.918 9.49242
head 0.00200508 -6.51939 5.00569
lclavicle -3.40265e-14 1.52452e-15 0
lhumerus 10.2318 -47.0538 90.433
lradius 67.2653 0 0
lwrist -6.10979 0 0
lhand -28.3607 392.186 0
lfingers 7.12502 0 0
lthumb -1.73429 -657.84 0
rclavicle -3.40265e-14 1.52452e-15 0
rhumerus 12.4275 49.6024 -58.0271
rradius 105.19 0 0
rwrist -41.8456 0 0
rhand -4.41486 -384.892 0
rfingers 7.12502 0 0
rthumb 21.3593 306.208 0
3071
root -1.24068 16.1034 -34.2459 1085.73 9.38376 2.10853
lfemur -31.8579 3.29151 -2.93243
ltibia 59.4044 0 0
lfoot -10.9128 -0.244934 0
ltoes -39.4003 0 0
rfemur -34.9895 -5.88493 23.6885
rtibia 59.3872 0 0
rfoot -18.4756 -27.3626 0
rtoes -9.3898 0 0
lowerback 12.141 0.150869 -1.24536
upperback -1.26337 0.132328 1.6132
thorax -8.19948 0.174051 2.43264
lowerneck 3.37689 -9.10036 -11.6964
upperneck -2.56484 -12.4517 9.24105
head 0.0321501 -6.28172 4.91161
lclavicle -3.41381e-14 -1.98912e-16 0
lhumerus 8.01388 -46.9836 91.2158
lradius 67.9188 0 0
lwrist -5.61054 0 0
lhand -28.3336 392.495 0
lfingers 7.12502 0 0
lthumb -1.70811 -657.53 0
rclavicle -3.41381e-14 -1.98912e-16 0
rhumerus 8.93537 50.0864 -60.2333
rradius 106.2 0 0
rwrist -41.3919 0 0
rhand -4.61795 -384.77 0
rfingers 7.12502 0 0
rthumb 21.1637 306.317 0
